# xmcd
#
# Track frame offsets:
#	150
#	13024
#	30134
#	44987
#	59074
#	72744
#	94409
#	104636
#	115477
#	131598
#	141059
#	156874
#	173147
#	188447
#	212847
#
# Disc length: 3194 seconds
#
# Revision: 0
# Processed by: cddbd v1.5.2PL0 Copyright (c) Steve Scherf et al.
# Submitted via: audiograbber 1.83.01
#
DISCID=e40c780f
DTITLE=Erin Hay - Honky Tonk Heaven
DYEAR=1900
DGENRE=
TTITLE0=You're A Lesson I've Already Learned
TTITLE1=There Goes My Everything
TTITLE2=Bad Luck
TTITLE3=Honky Tonk Heaven
TTITLE4=Poison Of Your Kiss
TTITLE5=Cheater's Moon
TTITLE6=Alone With You
TTITLE7=Honky Tonk Girl
TTITLE8=Autumn's Not That Cold
TTITLE9=Your Good Girl's Gonna Go Bad
TTITLE10=If The Phone Don't Ring
TTITLE11=Mirror! Mirror! (On The Wall)
TTITLE12=My Hands Are Full
TTITLE13=I Got The Blues Again
TTITLE14=Data Track
EXTD=
EXTT0=
EXTT1=
EXTT2=
EXTT3=
EXTT4=
EXTT5=
EXTT6=
EXTT7=
EXTT8=
EXTT9=
EXTT10=
EXTT11=
EXTT12=
EXTT13=
EXTT14=
PLAYORDER=
